<mxfile host="app.diagrams.net" modified="2023-10-16T21:01:03.709Z" agent="Mozilla/5.0 (X11; Linux x86_64) AppleWebKit/537.36 (KHTML, like Gecko) Chrome/118.0.0.0 Safari/537.36" etag="2cf89Vbr1sW7MZgwmS4U" version="22.0.4" type="device">
  <diagram name="Página-1" id="bS2MjokrFLo7E7JU0h8C">
    <mxGraphModel dx="1434" dy="742" grid="1" gridSize="10" guides="1" tooltips="1" connect="1" arrows="1" fold="1" page="1" pageScale="1" pageWidth="827" pageHeight="1169" math="0" shadow="0">
      <root>
        <mxCell id="0" />
        <mxCell id="1" parent="0" />
        <mxCell id="ZuZGGENEoOjbWPKfL3nu-9" value="" style="rounded=0;whiteSpace=wrap;html=1;fillColor=none;gradientColor=none;fillStyle=cross-hatch;shadow=1;strokeWidth=3;strokeColor=#FFFFFF;" vertex="1" parent="1">
          <mxGeometry x="170" y="310" width="480" height="110" as="geometry" />
        </mxCell>
        <mxCell id="ZuZGGENEoOjbWPKfL3nu-8" value="" style="rounded=0;whiteSpace=wrap;html=1;fillColor=none;fillStyle=dots;shadow=1;strokeWidth=3;strokeColor=#FFFFFF;" vertex="1" parent="1">
          <mxGeometry x="45" y="180" width="285" height="280" as="geometry" />
        </mxCell>
        <mxCell id="ZuZGGENEoOjbWPKfL3nu-13" style="edgeStyle=orthogonalEdgeStyle;rounded=0;orthogonalLoop=1;jettySize=auto;html=1;strokeWidth=3;shadow=1;strokeColor=#FFFFFF;" edge="1" parent="1" source="ZuZGGENEoOjbWPKfL3nu-1" target="ZuZGGENEoOjbWPKfL3nu-4">
          <mxGeometry relative="1" as="geometry" />
        </mxCell>
        <mxCell id="ZuZGGENEoOjbWPKfL3nu-1" value="Recursos" style="rounded=0;whiteSpace=wrap;html=1;fontSize=14;shadow=1;strokeWidth=3;strokeColor=#FFFFFF;" vertex="1" parent="1">
          <mxGeometry x="60" y="340" width="90" height="40" as="geometry" />
        </mxCell>
        <mxCell id="ZuZGGENEoOjbWPKfL3nu-2" style="edgeStyle=orthogonalEdgeStyle;rounded=0;orthogonalLoop=1;jettySize=auto;html=1;exitX=0.5;exitY=1;exitDx=0;exitDy=0;fontSize=14;shadow=1;strokeWidth=3;strokeColor=#FFFFFF;" edge="1" parent="1" source="ZuZGGENEoOjbWPKfL3nu-1" target="ZuZGGENEoOjbWPKfL3nu-1">
          <mxGeometry relative="1" as="geometry" />
        </mxCell>
        <mxCell id="ZuZGGENEoOjbWPKfL3nu-14" style="edgeStyle=orthogonalEdgeStyle;rounded=0;orthogonalLoop=1;jettySize=auto;html=1;strokeWidth=3;shadow=1;strokeColor=#FFFFFF;" edge="1" parent="1" source="ZuZGGENEoOjbWPKfL3nu-4" target="ZuZGGENEoOjbWPKfL3nu-5">
          <mxGeometry relative="1" as="geometry" />
        </mxCell>
        <mxCell id="ZuZGGENEoOjbWPKfL3nu-4" value="Productos" style="rounded=0;whiteSpace=wrap;html=1;fontSize=14;shadow=1;strokeWidth=3;strokeColor=#FFFFFF;" vertex="1" parent="1">
          <mxGeometry x="222" y="340" width="90" height="40" as="geometry" />
        </mxCell>
        <mxCell id="ZuZGGENEoOjbWPKfL3nu-15" style="edgeStyle=orthogonalEdgeStyle;rounded=0;orthogonalLoop=1;jettySize=auto;html=1;strokeWidth=3;shadow=1;strokeColor=#FFFFFF;" edge="1" parent="1" source="ZuZGGENEoOjbWPKfL3nu-5" target="ZuZGGENEoOjbWPKfL3nu-6">
          <mxGeometry relative="1" as="geometry" />
        </mxCell>
        <mxCell id="ZuZGGENEoOjbWPKfL3nu-5" value="Resultados" style="rounded=0;whiteSpace=wrap;html=1;fontSize=14;shadow=1;strokeWidth=3;strokeColor=#FFFFFF;" vertex="1" parent="1">
          <mxGeometry x="385" y="340" width="90" height="40" as="geometry" />
        </mxCell>
        <mxCell id="ZuZGGENEoOjbWPKfL3nu-6" value="Impactos" style="rounded=0;whiteSpace=wrap;html=1;fontSize=14;shadow=1;strokeWidth=3;strokeColor=#FFFFFF;" vertex="1" parent="1">
          <mxGeometry x="547" y="340" width="90" height="40" as="geometry" />
        </mxCell>
        <mxCell id="ZuZGGENEoOjbWPKfL3nu-16" style="edgeStyle=orthogonalEdgeStyle;rounded=0;orthogonalLoop=1;jettySize=auto;html=1;strokeWidth=3;shadow=1;strokeColor=#FFFFFF;" edge="1" parent="1" source="ZuZGGENEoOjbWPKfL3nu-7">
          <mxGeometry relative="1" as="geometry">
            <mxPoint x="177" y="360" as="targetPoint" />
          </mxGeometry>
        </mxCell>
        <mxCell id="ZuZGGENEoOjbWPKfL3nu-7" value="Operaciones" style="rounded=0;whiteSpace=wrap;html=1;fontSize=14;shadow=1;strokeWidth=3;strokeColor=#FFFFFF;" vertex="1" parent="1">
          <mxGeometry x="132" y="230" width="90" height="40" as="geometry" />
        </mxCell>
        <mxCell id="ZuZGGENEoOjbWPKfL3nu-10" value="Planificación estratégica de alta dirección" style="rounded=0;whiteSpace=wrap;html=1;strokeColor=#FFFFFF;fontStyle=1;glass=0;shadow=1;strokeWidth=3;" vertex="1" parent="1">
          <mxGeometry x="385" y="390" width="248" height="30" as="geometry" />
        </mxCell>
        <mxCell id="ZuZGGENEoOjbWPKfL3nu-11" value="Planificación operativa" style="rounded=0;whiteSpace=wrap;html=1;strokeColor=#FFFFFF;fontStyle=1;glass=0;shadow=1;strokeWidth=3;" vertex="1" parent="1">
          <mxGeometry x="45" y="430" width="248" height="30" as="geometry" />
        </mxCell>
        <mxCell id="ZuZGGENEoOjbWPKfL3nu-12" value="Formulación presupuestaria" style="rounded=0;whiteSpace=wrap;html=1;strokeColor=#FFFFFF;fontStyle=1;shadow=1;strokeWidth=3;" vertex="1" parent="1">
          <mxGeometry x="45" y="180" width="248" height="30" as="geometry" />
        </mxCell>
        <mxCell id="ZuZGGENEoOjbWPKfL3nu-17" value="" style="endArrow=none;dashed=1;html=1;dashPattern=1 3;strokeWidth=2;rounded=0;shadow=0;strokeColor=#FFFFFF;" edge="1" parent="1">
          <mxGeometry width="50" height="50" relative="1" as="geometry">
            <mxPoint x="267" y="495" as="sourcePoint" />
            <mxPoint x="267" y="135" as="targetPoint" />
          </mxGeometry>
        </mxCell>
        <mxCell id="ZuZGGENEoOjbWPKfL3nu-18" value="Sector Público" style="rounded=0;whiteSpace=wrap;html=1;strokeColor=none;fontStyle=1;labelBackgroundColor=#CCCCCC;fillColor=#CCCCCC;shadow=1;" vertex="1" parent="1">
          <mxGeometry x="159.5" y="140" width="100" height="30" as="geometry" />
        </mxCell>
        <mxCell id="ZuZGGENEoOjbWPKfL3nu-19" value="Sociedad" style="rounded=0;whiteSpace=wrap;html=1;strokeColor=none;fontStyle=1;labelBackgroundColor=#CCCCCC;fillColor=#CCCCCC;shadow=1;" vertex="1" parent="1">
          <mxGeometry x="274.5" y="140" width="100" height="30" as="geometry" />
        </mxCell>
      </root>
    </mxGraphModel>
  </diagram>
</mxfile>
